<svg width="36" height="36" viewBox="0 0 36 36" fill="none" xmlns="http://www.w3.org/2000/svg">
<g clip-path="url(#clip0_24_48)">
<path d="M29.5 7H10.5C10.1022 7 9.72064 7.15804 9.43934 7.43934C9.15804 7.72064 9 8.10218 9 8.5V32.5C9 32.8978 9.15804 33.2794 9.43934 33.5607C9.72064 33.842 10.1022 34 10.5 34H29.5C29.8978 34 30.2794 33.842 30.5607 33.5607C30.842 33.2794 31 32.8978 31 32.5V8.5C31 8.10218 30.842 7.72064 30.5607 7.43934C30.2794 7.15804 29.8978 7 29.5 7ZM29 32H11V9H29V32Z" fill="black"/>
<path d="M26 3.5C26 3.10218 25.842 2.72064 25.5607 2.43934C25.2794 2.15804 24.8978 2 24.5 2H5.5C5.10218 2 4.72064 2.15804 4.43934 2.43934C4.15804 2.72064 4 3.10218 4 3.5V27.5C4 27.8978 4.15804 28.2794 4.43934 28.5607C4.72064 28.842 5.10218 29 5.5 29H6V4H26V3.5Z" fill="black"/>
</g>
<defs>
<clipPath id="clip0_24_48">
<rect width="36" height="36" fill="white"/>
</clipPath>
</defs>
</svg>
