<svg width="64" height="64" viewBox="0 0 64 64" fill="none" xmlns="http://www.w3.org/2000/svg">
<rect width="64" height="64" fill="#CC3932"/>
<path d="M49.1163 21.5173C49.1115 21.5038 49.108 21.4904 49.1019 21.4772C49.0819 21.4339 49.0552 21.3941 49.0219 21.3576C49.0142 21.3487 49.0109 21.3371 49.0026 21.3288L43.9841 16.3104L38.4887 10.8114C38.4452 10.7699 38.3949 10.7403 38.3422 10.7167C38.3236 10.708 38.3046 10.7031 38.285 10.697C38.2496 10.6859 38.2139 10.6786 38.1768 10.6753C38.1618 10.674 38.1483 10.6667 38.1332 10.6667H19.5498C18.0769 10.6667 16.8786 11.8646 16.8786 13.3373V37.3532H16.1843C15.448 37.3532 14.851 37.9502 14.851 38.6865V45.784C14.851 46.5204 15.448 47.1174 16.1843 47.1174H16.8786V50.6621C16.8786 52.1348 18.0769 53.3334 19.5498 53.3334H46.4779C47.9509 53.3334 49.1491 52.1348 49.1491 50.6621V21.6823C49.1491 21.6717 49.1436 21.6621 49.1429 21.6517C49.1407 21.6053 49.1319 21.5609 49.1163 21.5173ZM46.4779 52.3334H19.5498C18.6283 52.3334 17.8786 51.5834 17.8786 50.6621V47.1174H32.309C33.1582 47.1174 33.8469 46.4287 33.8469 45.5794V38.8913C33.8469 38.0418 33.1582 37.3532 32.309 37.3532H17.8786V13.3373C17.8786 12.416 18.6283 11.6667 19.5498 11.6667H37.6351V19.5114C37.6351 20.9847 38.8285 22.1848 40.3018 22.1848H48.1491V50.6621C48.1491 51.5834 47.3995 52.3334 46.4779 52.3334Z" fill="white"/>
<path d="M41.5472 28.2468H24.4805C24.2044 28.2468 23.9805 28.4707 23.9805 28.7468C23.9805 29.0228 24.2044 29.2468 24.4805 29.2468H41.5472C41.8232 29.2468 42.0472 29.0228 42.0472 28.7468C42.0472 28.4707 41.8232 28.2468 41.5472 28.2468ZM24.4805 25.36H33.0137C33.2897 25.36 33.5137 25.1361 33.5137 24.86C33.5137 24.584 33.2897 24.36 33.0137 24.36H24.4805C24.2044 24.36 23.9805 24.584 23.9805 24.86C23.9805 25.1361 24.2044 25.36 24.4805 25.36ZM41.5472 32.1328H24.4805C24.2044 32.1328 23.9805 32.3568 23.9805 32.6328C23.9805 32.9089 24.2044 33.1328 24.4805 33.1328H41.5472C41.8232 33.1328 42.0472 32.9089 42.0472 32.6328C42.0472 32.3568 41.8232 32.1328 41.5472 32.1328Z" fill="white"/>
<path d="M25.9917 44.075V45.3372C25.9442 45.398 25.8693 45.4641 25.7669 45.5353C25.666 45.6065 25.5339 45.6681 25.3706 45.7201C25.2074 45.7705 25.007 45.7958 24.7696 45.7958C24.5633 45.7958 24.3748 45.7616 24.2042 45.6934C24.0335 45.6236 23.8866 45.522 23.7634 45.3884C23.6402 45.2548 23.5453 45.0916 23.4785 44.8986C23.4117 44.7057 23.3783 44.4853 23.3783 44.2375V44.0238C23.3783 43.776 23.4095 43.5556 23.4718 43.3627C23.5356 43.1697 23.6261 43.0065 23.7434 42.8729C23.8621 42.7394 24.0038 42.6377 24.1686 42.5679C24.3348 42.4982 24.5203 42.4633 24.7251 42.4633C24.9996 42.4633 25.2252 42.5086 25.4018 42.5991C25.5799 42.6896 25.7164 42.8143 25.8114 42.9731C25.9064 43.1304 25.9657 43.3115 25.9895 43.5163H25.3929C25.3766 43.4035 25.3439 43.3048 25.295 43.2202C25.246 43.1341 25.1762 43.0673 25.0857 43.0198C24.9967 42.9709 24.8809 42.9464 24.7384 42.9464C24.6182 42.9464 24.5121 42.9701 24.4201 43.0176C24.3281 43.0651 24.2509 43.1341 24.1886 43.2246C24.1263 43.3152 24.0788 43.4272 24.0461 43.5608C24.015 43.6943 23.9994 43.8472 23.9994 44.0193V44.2375C23.9994 44.4111 24.0172 44.5655 24.0528 44.7005C24.0884 44.8341 24.1396 44.9469 24.2064 45.0389C24.2747 45.1294 24.3585 45.1984 24.4579 45.2459C24.5589 45.2919 24.6731 45.3149 24.8008 45.3149C24.9165 45.3149 25.0122 45.3053 25.0879 45.286C25.1651 45.2652 25.2267 45.2407 25.2727 45.2125C25.3187 45.1843 25.3543 45.1569 25.3795 45.1302V44.5224H24.7362V44.075H25.9917Z" fill="#CC3932"/>
<path d="M22.9447 44.0486V44.2156C22.9447 44.4604 22.9121 44.6808 22.8468 44.8767C22.7815 45.0711 22.6887 45.2366 22.5685 45.3731C22.4483 45.5097 22.3051 45.6143 22.1389 45.687C21.9727 45.7597 21.7879 45.7961 21.5846 45.7961C21.3842 45.7961 21.2002 45.7597 21.0325 45.687C20.8663 45.6143 20.7224 45.5097 20.6007 45.3731C20.479 45.2366 20.3847 45.0711 20.3179 44.8767C20.2512 44.6808 20.2178 44.4604 20.2178 44.2156V44.0486C20.2178 43.8023 20.2512 43.5819 20.3179 43.3875C20.3847 43.1931 20.4782 43.0276 20.5984 42.8911C20.7186 42.753 20.8619 42.6477 21.0281 42.575C21.1958 42.5022 21.3798 42.4659 21.5801 42.4659C21.7835 42.4659 21.9682 42.5022 22.1344 42.575C22.3006 42.6477 22.4439 42.753 22.5641 42.8911C22.6858 43.0276 22.7793 43.1931 22.8445 43.3875C22.9113 43.5819 22.9447 43.8023 22.9447 44.0486ZM22.3259 44.2156V44.0442C22.3259 43.8676 22.3095 43.7125 22.2769 43.5789C22.2442 43.4439 22.196 43.3303 22.1322 43.2383C22.0684 43.1463 21.9897 43.0773 21.8962 43.0313C21.8027 42.9838 21.6974 42.9601 21.5801 42.9601C21.4614 42.9601 21.356 42.9838 21.264 43.0313C21.1735 43.0773 21.0963 43.1463 21.0325 43.2383C20.9687 43.3303 20.9197 43.4439 20.8856 43.5789C20.8529 43.7125 20.8366 43.8676 20.8366 44.0442V44.2156C20.8366 44.3907 20.8529 44.5458 20.8856 44.6808C20.9197 44.8159 20.9687 44.9302 21.0325 45.0236C21.0978 45.1157 21.1765 45.1854 21.2685 45.2329C21.3605 45.2804 21.4659 45.3041 21.5846 45.3041C21.7033 45.3041 21.8087 45.2804 21.9007 45.2329C21.9927 45.1854 22.0699 45.1157 22.1322 45.0236C22.196 44.9302 22.2442 44.8159 22.2769 44.6808C22.3095 44.5458 22.3259 44.3907 22.3259 44.2156Z" fill="#CC3932"/>
<path d="M20.0569 45.2707V45.7515H18.4274V45.2707H20.0569ZM18.6122 42.5103V45.7515H18V42.5103H18.6122Z" fill="#CC3932"/>
<path d="M29.5135 38.7113H30.6911C30.9375 38.7113 31.149 38.7484 31.3256 38.8226C31.5022 38.8968 31.638 39.0066 31.733 39.1521C31.8279 39.2975 31.8754 39.4763 31.8754 39.6886C31.8754 39.8563 31.8457 40.0017 31.7864 40.1249C31.727 40.248 31.6432 40.3512 31.5348 40.4343C31.428 40.5174 31.3018 40.5827 31.1564 40.6302L30.965 40.7281H29.9254L29.9209 40.2451H30.6978C30.824 40.2451 30.9286 40.2228 31.0117 40.1783C31.0948 40.1338 31.1571 40.0722 31.1987 39.9935C31.2417 39.9149 31.2632 39.8251 31.2632 39.7242C31.2632 39.6158 31.2425 39.5223 31.2009 39.4437C31.1594 39.3635 31.0963 39.302 31.0117 39.2589C30.9271 39.2159 30.8203 39.1944 30.6911 39.1944H30.1257V41.9525H29.5135V38.7113ZM31.3434 41.9525L30.5932 40.5011L31.241 40.4988L32.0001 41.9213V41.9525H31.3434Z" fill="#CC3932"/>
<path d="M28.9945 40.2494V40.4164C28.9945 40.6613 28.9619 40.8816 28.8966 41.0775C28.8313 41.2719 28.7385 41.4374 28.6183 41.5739C28.4981 41.7105 28.3549 41.8151 28.1887 41.8878C28.0225 41.9605 27.8377 41.9969 27.6344 41.9969C27.434 41.9969 27.25 41.9605 27.0823 41.8878C26.9161 41.8151 26.7722 41.7105 26.6505 41.5739C26.5288 41.4374 26.4345 41.2719 26.3678 41.0775C26.301 40.8816 26.2676 40.6613 26.2676 40.4164V40.2494C26.2676 40.0031 26.301 39.7827 26.3678 39.5883C26.4345 39.3939 26.528 39.2284 26.6482 39.0919C26.7684 38.9539 26.9117 38.8485 27.0779 38.7758C27.2456 38.703 27.4296 38.6667 27.6299 38.6667C27.8333 38.6667 28.018 38.703 28.1842 38.7758C28.3504 38.8485 28.4937 38.9539 28.6139 39.0919C28.7356 39.2284 28.8291 39.3939 28.8944 39.5883C28.9611 39.7827 28.9945 40.0031 28.9945 40.2494ZM28.3757 40.4164V40.245C28.3757 40.0684 28.3594 39.9133 28.3267 39.7797C28.2941 39.6447 28.2458 39.5311 28.182 39.4391C28.1182 39.3471 28.0395 39.2781 27.946 39.2321C27.8525 39.1846 27.7472 39.1609 27.6299 39.1609C27.5112 39.1609 27.4058 39.1846 27.3138 39.2321C27.2233 39.2781 27.1461 39.3471 27.0823 39.4391C27.0185 39.5311 26.9695 39.6447 26.9354 39.7797C26.9028 39.9133 26.8864 40.0684 26.8864 40.245V40.4164C26.8864 40.5915 26.9028 40.7466 26.9354 40.8816C26.9695 41.0167 27.0185 41.131 27.0823 41.2245C27.1476 41.3165 27.2263 41.3862 27.3183 41.4337C27.4103 41.4812 27.5157 41.5049 27.6344 41.5049C27.7531 41.5049 27.8585 41.4812 27.9505 41.4337C28.0425 41.3862 28.1197 41.3165 28.182 41.2245C28.2458 41.131 28.2941 41.0167 28.3267 40.8816C28.3594 40.7466 28.3757 40.5915 28.3757 40.4164Z" fill="#CC3932"/>
<path d="M23.4717 38.7113H24.6493C24.8956 38.7113 25.1071 38.7484 25.2837 38.8226C25.4603 38.8968 25.5961 39.0066 25.6911 39.1521C25.7861 39.2975 25.8336 39.4763 25.8336 39.6886C25.8336 39.8563 25.8039 40.0017 25.7445 40.1249C25.6851 40.248 25.6013 40.3512 25.493 40.4343C25.3861 40.5174 25.26 40.5827 25.1145 40.6302L24.9231 40.7281H23.8835L23.8791 40.2451H24.656C24.7821 40.2451 24.8867 40.2228 24.9698 40.1783C25.0529 40.1338 25.1153 40.0722 25.1568 39.9935C25.1999 39.9149 25.2214 39.8251 25.2214 39.7242C25.2214 39.6158 25.2006 39.5223 25.159 39.4437C25.1175 39.3635 25.0544 39.302 24.9698 39.2589C24.8852 39.2159 24.7784 39.1944 24.6493 39.1944H24.0839V41.9525H23.4717V38.7113ZM25.3015 41.9525L24.5513 40.5011L25.1991 40.4988L25.9582 41.9213V41.9525H25.3015Z" fill="#CC3932"/>
<path d="M20.5732 38.7113H21.7508C21.9972 38.7113 22.2087 38.7484 22.3853 38.8226C22.5619 38.8968 22.6977 39.0066 22.7926 39.1521C22.8876 39.2975 22.9351 39.4763 22.9351 39.6886C22.9351 39.8563 22.9054 40.0017 22.8461 40.1249C22.7867 40.248 22.7029 40.3512 22.5945 40.4343C22.4877 40.5174 22.3615 40.5827 22.2161 40.6302L22.0246 40.7281H20.9851L20.9806 40.2451H21.7575C21.8837 40.2451 21.9883 40.2228 22.0714 40.1783C22.1545 40.1338 22.2168 40.0722 22.2584 39.9935C22.3014 39.9149 22.3229 39.8251 22.3229 39.7242C22.3229 39.6158 22.3022 39.5223 22.2606 39.4437C22.2191 39.3635 22.156 39.302 22.0714 39.2589C21.9868 39.2159 21.88 39.1944 21.7508 39.1944H21.1854V41.9525H20.5732V38.7113ZM22.4031 41.9525L21.6529 40.5011L22.3007 40.4988L23.0598 41.9213V41.9525H22.4031Z" fill="#CC3932"/>
<path d="M20.1482 41.4716V41.9525H18.4252V41.4716H20.1482ZM18.6122 38.7113V41.9525H18V38.7113H18.6122ZM19.9233 40.0492V40.5189H18.4252V40.0492H19.9233ZM20.1415 38.7113V39.1944H18.4252V38.7113H20.1415Z" fill="#CC3932"/>
</svg>
