<svg width="24" height="24" viewBox="0 0 24 24" fill="none" xmlns="http://www.w3.org/2000/svg">
<path d="M6 4C6 4.53043 5.78929 5.03914 5.41421 5.41421C5.03914 5.78929 4.53043 6 4 6C3.46957 6 2.96086 5.78929 2.58579 5.41421C2.21071 5.03914 2 4.53043 2 4C2 3.46957 2.21071 2.96086 2.58579 2.58579C2.96086 2.21071 3.46957 2 4 2C4.53043 2 5.03914 2.21071 5.41421 2.58579C5.78929 2.96086 6 3.46957 6 4ZM22 4C22 4.53043 21.7893 5.03914 21.4142 5.41421C21.0391 5.78929 20.5304 6 20 6C19.4696 6 18.9609 5.78929 18.5858 5.41421C18.2107 5.03914 18 4.53043 18 4C18 3.46957 18.2107 2.96086 18.5858 2.58579C18.9609 2.21071 19.4696 2 20 2C20.5304 2 21.0391 2.21071 21.4142 2.58579C21.7893 2.96086 22 3.46957 22 4ZM22 20C22 20.5304 21.7893 21.0391 21.4142 21.4142C21.0391 21.7893 20.5304 22 20 22C19.4696 22 18.9609 21.7893 18.5858 21.4142C18.2107 21.0391 18 20.5304 18 20C18 19.4696 18.2107 18.9609 18.5858 18.5858C18.9609 18.2107 19.4696 18 20 18C20.5304 18 21.0391 18.2107 21.4142 18.5858C21.7893 18.9609 22 19.4696 22 20ZM6 20C6 20.5304 5.78929 21.0391 5.41421 21.4142C5.03914 21.7893 4.53043 22 4 22C3.46957 22 2.96086 21.7893 2.58579 21.4142C2.21071 21.0391 2 20.5304 2 20C2 19.4696 2.21071 18.9609 2.58579 18.5858C2.96086 18.2107 3.46957 18 4 18C4.53043 18 5.03914 18.2107 5.41421 18.5858C5.78929 18.9609 6 19.4696 6 20ZM16.5 9C16.5 8.534 16.5 8.301 16.424 8.117C16.3223 7.87246 16.1277 7.67826 15.883 7.577C15.699 7.5 15.466 7.5 15 7.5H9C8.534 7.5 8.301 7.5 8.117 7.576C7.87246 7.67771 7.67826 7.87227 7.577 8.117C7.5 8.301 7.5 8.534 7.5 9C7.5 9.466 7.5 9.699 7.576 9.883C7.67771 10.1275 7.87227 10.3217 8.117 10.423C8.301 10.5 8.534 10.5 9 10.5H15C15.466 10.5 15.699 10.5 15.883 10.424C16.1275 10.3223 16.3217 10.1277 16.423 9.883C16.5 9.699 16.5 9.466 16.5 9ZM16.5 15C16.5 14.534 16.5 14.301 16.424 14.117C16.3223 13.8725 16.1277 13.6783 15.883 13.577C15.699 13.5 15.466 13.5 15 13.5H9C8.534 13.5 8.301 13.5 8.117 13.576C7.87246 13.6777 7.67826 13.8723 7.577 14.117C7.5 14.301 7.5 14.534 7.5 15C7.5 15.466 7.5 15.699 7.576 15.883C7.67771 16.1275 7.87227 16.3217 8.117 16.423C8.301 16.5 8.534 16.5 9 16.5H15C15.466 16.5 15.699 16.5 15.883 16.424C16.1275 16.3223 16.3217 16.1277 16.423 15.883C16.5 15.699 16.5 15.466 16.5 15Z" stroke="black" stroke-width="1.5" stroke-linecap="round" stroke-linejoin="round"/>
</svg>
